<svg width="400" height="400" xmlns="http://www.w3.org/2000/svg">
  <g fill="none" stroke="rgba(255,255,255,0.04)" stroke-width="1.5">
    <circle cx="45" cy="45" r="8" />
    <circle cx="130" cy="85" r="14" />
    <circle cx="85" cy="180" r="10" />
    <circle cx="210" cy="55" r="5" />
    <circle cx="310" cy="130" r="18" />
    <circle cx="360" cy="45" r="9" />
    <circle cx="260" cy="260" r="12" />
    <circle cx="160" cy="310" r="7" />
    <circle cx="55" cy="360" r="15" />
    <circle cx="330" cy="330" r="6" />
    <circle cx="390" cy="210" r="11" />
    <circle cx="190" cy="160" r="8" />
    <circle cx="240" cy="350" r="16" />
    <circle cx="30" cy="220" r="5" />
    <circle cx="190" cy="380" r="4" />
  </g>
  <g fill="none" stroke="rgba(255,255,255,0.06)" stroke-width="2">
    <circle cx="100" cy="100" r="6" />
    <circle cx="280" cy="60" r="8" />
    <circle cx="340" cy="260" r="10" />
    <circle cx="120" cy="220" r="5" />
    <circle cx="80" cy="300" r="7" />
  </g>
  <g fill="rgba(255,255,255,0.03)">
    <circle cx="65" cy="125" r="4" />
    <circle cx="225" cy="95" r="6" />
    <circle cx="105" cy="255" r="3" />
    <circle cx="285" cy="285" r="7" />
    <circle cx="365" cy="105" r="5" />
    <circle cx="125" cy="365" r="6" />
    <circle cx="205" cy="205" r="4" />
    <circle cx="375" cy="355" r="3" />
    <circle cx="25" cy="285" r="5" />
    <circle cx="175" cy="45" r="4" />
  </g>
  <g fill="rgba(255,255,255,0.015)">
    <circle cx="200" cy="100" r="25" />
    <circle cx="80" cy="340" r="30" />
    <circle cx="350" cy="180" r="20" />
  </g>
</svg>
